<?xml version="1.0" encoding="utf-8"?>
<!-- Generator: Adobe Illustrator 16.0.0, SVG Export Plug-In . SVG Version: 6.00 Build 0)  -->
<!DOCTYPE svg PUBLIC "-//W3C//DTD SVG 1.1//EN" "http://www.w3.org/Graphics/SVG/1.1/DTD/svg11.dtd">
<svg version="1.1" xmlns="http://www.w3.org/2000/svg" xmlns:xlink="http://www.w3.org/1999/xlink" x="0px" y="0px" width="360px"
	 height="383px" viewBox="0 0 360 383" enable-background="new 0 0 360 383" xml:space="preserve">
<g id="Lob">
</g>
<g id="Rounded_Rectangle_3_5_" enable-background="new    ">
</g>
<g id="Rounded_Rectangle_3_4_" enable-background="new    ">
</g>
<g id="Rounded_Rectangle_3_3_" enable-background="new    ">
	<g>
		<g id="Rounded_Rectangle_3">
			<g>
				<path fill="#3B77BC" d="M234.205,28.983c-9.146-9.043-23.975-9.043-33.125,0L39.365,188.831c-9.148,9.043-9.148,23.707,0,32.746
					c9.146,9.043,23.979,9.043,33.127,0L234.205,61.726C243.352,52.683,243.352,38.026,234.205,28.983z"/>
			</g>
		</g>
		<g id="Rounded_Rectangle_3_1_">
			<g>
				<path fill="#488FCC" d="M320.635,39.397c-9.146-9.035-23.979-9.035-33.123,0L125.795,199.257
					c-9.148,9.035-9.148,23.695,0,32.742c9.146,9.035,23.979,9.035,33.123,0L320.635,72.144
					C329.783,63.101,329.783,48.444,320.635,39.397z"/>
			</g>
		</g>
		<g id="Rounded_Rectangle_3_2_">
			<g>
				<path fill="#55A7DC" d="M286.908,164.425c-9.146-9.043-23.98-9.043-33.127,0L92.068,324.272c-9.148,9.043-9.148,23.703,0,32.75
					c9.146,9.035,23.977,9.035,33.123,0l161.717-159.852C296.055,188.128,296.055,173.468,286.908,164.425z"/>
			</g>
		</g>
	</g>
</g>
</svg>
